
<svg xmlns="http://www.w3.org/2000/svg" viewBox="0 0 16 16" shape-rendering="crispEdges" width="100%" height="100%" aria-label="kitty">
  

  
  <rect x="2" y="1" width="1" height="1" fill="#A93D00"></rect>
  <rect x="13" y="1" width="1" height="1" fill="#A93D00"></rect>

  
  <rect x="1" y="2" width="1" height="1" fill="#A93D00"></rect>
  <rect x="2" y="2" width="2" height="1" fill="#F26A12"></rect>
  <rect x="4" y="2" width="1" height="1" fill="#A93D00"></rect>
  <rect x="11" y="2" width="1" height="1" fill="#A93D00"></rect>
  <rect x="12" y="2" width="2" height="1" fill="#F26A12"></rect>
  <rect x="14" y="2" width="1" height="1" fill="#A93D00"></rect>

  
  <rect x="1" y="3" width="1" height="1" fill="#A93D00"></rect>
  <rect x="2" y="3" width="3" height="1" fill="#F26A12"></rect>
  <rect x="5" y="3" width="6" height="1" fill="#A93D00"></rect>
  <rect x="11" y="3" width="3" height="1" fill="#F26A12"></rect>
  <rect x="14" y="3" width="1" height="1" fill="#A93D00"></rect>

  
  <rect x="1" y="4" width="1" height="1" fill="#A93D00"></rect>
  <rect x="2" y="4" width="12" height="1" fill="#F26A12"></rect>
  <rect x="14" y="4" width="1" height="1" fill="#A93D00"></rect>

  
  <rect x="1" y="5" width="1" height="1" fill="#A93D00"></rect>
  <rect x="2" y="5" width="2" height="1" fill="#F26A12"></rect>
  <rect x="4" y="5" width="2" height="1" fill="#0F0C09"></rect>
  <rect x="6" y="5" width="4" height="1" fill="#F26A12"></rect>
  <rect x="10" y="5" width="2" height="1" fill="#0F0C09"></rect>
  <rect x="12" y="5" width="2" height="1" fill="#F26A12"></rect>
  <rect x="14" y="5" width="1" height="1" fill="#A93D00"></rect>

  
  <rect x="1" y="6" width="1" height="1" fill="#A93D00"></rect>
  <rect x="2" y="6" width="2" height="1" fill="#F26A12"></rect>
  <rect x="4" y="6" width="1" height="1" fill="#FBF7F0"></rect>
  <rect x="5" y="6" width="1" height="1" fill="#F26A12"></rect>
  <rect x="6" y="6" width="4" height="1" fill="#F26A12"></rect>
  <rect x="10" y="6" width="1" height="1" fill="#FBF7F0"></rect>
  <rect x="11" y="6" width="1" height="1" fill="#F26A12"></rect>
  <rect x="12" y="6" width="2" height="1" fill="#F26A12"></rect>
  <rect x="14" y="6" width="1" height="1" fill="#A93D00"></rect>

  
  <rect x="1" y="7" width="1" height="1" fill="#A93D00"></rect>
  <rect x="2" y="7" width="5" height="1" fill="#F26A12"></rect>
  <rect x="7" y="7" width="2" height="1" fill="#B07AC2"></rect>
  <rect x="9" y="7" width="5" height="1" fill="#F26A12"></rect>
  <rect x="14" y="7" width="1" height="1" fill="#A93D00"></rect>

  
  <rect x="1" y="8" width="1" height="1" fill="#A93D00"></rect>
  <rect x="2" y="8" width="4" height="1" fill="#F26A12"></rect>
  <rect x="6" y="8" width="1" height="1" fill="#0F0C09"></rect>
  <rect x="7" y="8" width="2" height="1" fill="#F26A12"></rect>
  <rect x="9" y="8" width="1" height="1" fill="#0F0C09"></rect>
  <rect x="10" y="8" width="4" height="1" fill="#F26A12"></rect>
  <rect x="14" y="8" width="1" height="1" fill="#A93D00"></rect>

  
  <rect x="1" y="9" width="1" height="1" fill="#A93D00"></rect>
  <rect x="2" y="9" width="12" height="1" fill="#F26A12"></rect>
  <rect x="14" y="9" width="1" height="1" fill="#A93D00"></rect>

  
  <rect x="1" y="10" width="1" height="1" fill="#A93D00"></rect>
  <rect x="2" y="10" width="3" height="1" fill="#F26A12"></rect>
  <rect x="5" y="10" width="6" height="1" fill="#FFB377"></rect>
  <rect x="11" y="10" width="3" height="1" fill="#F26A12"></rect>
  <rect x="14" y="10" width="1" height="1" fill="#A93D00"></rect>

  
  <rect x="1" y="11" width="1" height="1" fill="#A93D00"></rect>
  <rect x="2" y="11" width="2" height="1" fill="#F26A12"></rect>
  <rect x="4" y="11" width="8" height="1" fill="#FFB377"></rect>
  <rect x="12" y="11" width="2" height="1" fill="#F26A12"></rect>
  <rect x="14" y="11" width="1" height="1" fill="#A93D00"></rect>

  
  <rect x="1" y="12" width="1" height="1" fill="#A93D00"></rect>
  <rect x="2" y="12" width="2" height="1" fill="#F26A12"></rect>
  <rect x="4" y="12" width="8" height="1" fill="#FFB377"></rect>
  <rect x="12" y="12" width="2" height="1" fill="#F26A12"></rect>
  <rect x="14" y="12" width="1" height="1" fill="#A93D00"></rect>
  <rect x="15" y="12" width="1" height="1" fill="#F26A12"></rect>

  
  <rect x="1" y="13" width="1" height="1" fill="#A93D00"></rect>
  <rect x="2" y="13" width="3" height="1" fill="#F26A12"></rect>
  <rect x="5" y="13" width="1" height="1" fill="#A93D00"></rect>
  <rect x="6" y="13" width="4" height="1" fill="#FFB377"></rect>
  <rect x="10" y="13" width="1" height="1" fill="#A93D00"></rect>
  <rect x="11" y="13" width="3" height="1" fill="#F26A12"></rect>
  <rect x="14" y="13" width="1" height="1" fill="#A93D00"></rect>
  <rect x="15" y="13" width="1" height="1" fill="#A93D00"></rect>

  
  <rect x="2" y="14" width="3" height="1" fill="#A93D00"></rect>
  <rect x="11" y="14" width="3" height="1" fill="#A93D00"></rect>
</svg>