
<svg xmlns="http://www.w3.org/2000/svg" width="0" height="0" style="position:absolute" aria-hidden="true">
  <defs>
    
    <symbol id="g-home" viewBox="0 0 16 16">
      <g shape-rendering="crispEdges" fill="currentColor">
        <rect x="7" y="2" width="2" height="2"></rect>
        <rect x="6" y="4" width="4" height="1"></rect>
        <rect x="5" y="5" width="6" height="1"></rect>
        <rect x="4" y="6" width="8" height="1"></rect>
        <rect x="3" y="7" width="10" height="6"></rect>
        <rect x="6" y="9" width="4" height="4" fill="#0F0C09"></rect>
      </g>
    </symbol>

    <symbol id="g-chat" viewBox="0 0 16 16">
      <g shape-rendering="crispEdges" fill="currentColor">
        <rect x="2" y="3" width="12" height="1"></rect>
        <rect x="1" y="4" width="14" height="1"></rect>
        <rect x="1" y="5" width="14" height="1"></rect>
        <rect x="1" y="6" width="14" height="1"></rect>
        <rect x="1" y="7" width="14" height="1"></rect>
        <rect x="1" y="8" width="14" height="1"></rect>
        <rect x="2" y="9" width="12" height="1"></rect>
        <rect x="3" y="10" width="6" height="1"></rect>
        <rect x="4" y="11" width="3" height="1"></rect>
        <rect x="5" y="12" width="1" height="1"></rect>
        
        <rect x="4" y="6" width="2" height="2" fill="#0F0C09"></rect>
        <rect x="10" y="6" width="2" height="2" fill="#0F0C09"></rect>
      </g>
    </symbol>
    
    <symbol id="g-folder" viewBox="0 0 16 16">
      <g shape-rendering="crispEdges" fill="currentColor">
        <rect x="1" y="4" width="5" height="1"></rect>
        <rect x="1" y="5" width="14" height="1"></rect>
        <rect x="1" y="6" width="14" height="6"></rect>
        <rect x="1" y="12" width="14" height="1"></rect>
      </g>
    </symbol>
    
    <symbol id="g-cog" viewBox="0 0 16 16">
      <g shape-rendering="crispEdges" fill="currentColor">
        <rect x="7" y="1" width="2" height="2"></rect>
        <rect x="7" y="13" width="2" height="2"></rect>
        <rect x="1" y="7" width="2" height="2"></rect>
        <rect x="13" y="7" width="2" height="2"></rect>
        <rect x="3" y="3" width="2" height="2"></rect>
        <rect x="11" y="3" width="2" height="2"></rect>
        <rect x="3" y="11" width="2" height="2"></rect>
        <rect x="11" y="11" width="2" height="2"></rect>
        <rect x="4" y="4" width="8" height="8"></rect>
        <rect x="6" y="6" width="4" height="4" fill="#0F0C09"></rect>
      </g>
    </symbol>
    
    <symbol id="g-plus" viewBox="0 0 16 16">
      <g shape-rendering="crispEdges" fill="currentColor">
        <rect x="7" y="2" width="2" height="12"></rect>
        <rect x="2" y="7" width="12" height="2"></rect>
      </g>
    </symbol>
    
    <symbol id="g-search" viewBox="0 0 16 16">
      <g shape-rendering="crispEdges" fill="currentColor">
        <rect x="2" y="3" width="6" height="1"></rect>
        <rect x="1" y="4" width="2" height="1"></rect>
        <rect x="8" y="4" width="2" height="1"></rect>
        <rect x="1" y="5" width="1" height="4"></rect>
        <rect x="9" y="5" width="1" height="4"></rect>
        <rect x="1" y="9" width="2" height="1"></rect>
        <rect x="8" y="9" width="2" height="1"></rect>
        <rect x="2" y="10" width="6" height="1"></rect>
        <rect x="9" y="10" width="2" height="2"></rect>
        <rect x="11" y="12" width="2" height="2"></rect>
        <rect x="13" y="14" width="1" height="1"></rect>
      </g>
    </symbol>
    
    <symbol id="g-prompt" viewBox="0 0 16 16">
      <g shape-rendering="crispEdges" fill="currentColor">
        <rect x="2" y="4" width="2" height="1"></rect>
        <rect x="3" y="5" width="2" height="1"></rect>
        <rect x="4" y="6" width="2" height="1"></rect>
        <rect x="5" y="7" width="2" height="1"></rect>
        <rect x="4" y="8" width="2" height="1"></rect>
        <rect x="3" y="9" width="2" height="1"></rect>
        <rect x="2" y="10" width="2" height="1"></rect>
        <rect x="8" y="10" width="6" height="1"></rect>
      </g>
    </symbol>
    
    <symbol id="g-spark" viewBox="0 0 16 16">
      <g shape-rendering="crispEdges" fill="currentColor">
        <rect x="7" y="1" width="2" height="3"></rect>
        <rect x="7" y="12" width="2" height="3"></rect>
        <rect x="1" y="7" width="3" height="2"></rect>
        <rect x="12" y="7" width="3" height="2"></rect>
        <rect x="6" y="6" width="4" height="4"></rect>
      </g>
    </symbol>
    
    <symbol id="g-check" viewBox="0 0 16 16">
      <g shape-rendering="crispEdges" fill="currentColor">
        <rect x="12" y="3" width="2" height="2"></rect>
        <rect x="10" y="5" width="2" height="2"></rect>
        <rect x="8" y="7" width="2" height="2"></rect>
        <rect x="6" y="9" width="2" height="2"></rect>
        <rect x="4" y="9" width="2" height="2"></rect>
        <rect x="2" y="7" width="2" height="2"></rect>
      </g>
    </symbol>
    
    <symbol id="g-x" viewBox="0 0 16 16">
      <g shape-rendering="crispEdges" fill="currentColor">
        <rect x="2" y="2" width="2" height="2"></rect>
        <rect x="4" y="4" width="2" height="2"></rect>
        <rect x="6" y="6" width="4" height="4"></rect>
        <rect x="10" y="10" width="2" height="2"></rect>
        <rect x="12" y="12" width="2" height="2"></rect>
        <rect x="12" y="2" width="2" height="2"></rect>
        <rect x="10" y="4" width="2" height="2"></rect>
        <rect x="4" y="10" width="2" height="2"></rect>
        <rect x="2" y="12" width="2" height="2"></rect>
      </g>
    </symbol>

    <symbol id="g-terminal" viewBox="0 0 16 16">
      <g shape-rendering="crispEdges" fill="currentColor">
        <rect x="1" y="2" width="14" height="1"></rect>
        <rect x="1" y="13" width="14" height="1"></rect>
        <rect x="1" y="3" width="1" height="10"></rect>
        <rect x="14" y="3" width="1" height="10"></rect>
        <rect x="1" y="5" width="14" height="1"></rect>
        <rect x="3" y="7" width="1" height="1"></rect>
        <rect x="4" y="8" width="1" height="1"></rect>
        <rect x="3" y="9" width="1" height="1"></rect>
        <rect x="6" y="9" width="4" height="1"></rect>
      </g>
    </symbol>
  </defs>
</svg>