
<svg xmlns="http://www.w3.org/2000/svg" viewBox="0 0 200 56" shape-rendering="crispEdges" aria-label="kitty">
  

  

  
  <g fill="#FBF7F0">
    
    <rect x="8" y="8" width="4" height="4"></rect>
    <rect x="8" y="12" width="4" height="4"></rect>
    <rect x="8" y="16" width="4" height="4"></rect>
    <rect x="8" y="20" width="4" height="4"></rect>
    <rect x="8" y="24" width="4" height="4"></rect>
    <rect x="8" y="28" width="4" height="4"></rect>
    <rect x="12" y="20" width="4" height="4"></rect>
    <rect x="16" y="16" width="4" height="4"></rect>
    <rect x="16" y="24" width="4" height="4"></rect>
    <rect x="20" y="12" width="4" height="4"></rect>
    <rect x="20" y="28" width="4" height="4"></rect>

    
    <rect x="32" y="8" width="4" height="4"></rect>
    <rect x="32" y="16" width="4" height="4"></rect>
    <rect x="32" y="20" width="4" height="4"></rect>
    <rect x="32" y="24" width="4" height="4"></rect>
    <rect x="32" y="28" width="4" height="4"></rect>

    
    <rect x="44" y="12" width="4" height="4"></rect>
    <rect x="48" y="12" width="4" height="4"></rect>
    <rect x="52" y="12" width="4" height="4"></rect>
    <rect x="48" y="8" width="4" height="4"></rect>
    <rect x="48" y="16" width="4" height="4"></rect>
    <rect x="48" y="20" width="4" height="4"></rect>
    <rect x="48" y="24" width="4" height="4"></rect>
    <rect x="48" y="28" width="4" height="4"></rect>

    
    <rect x="60" y="12" width="4" height="4"></rect>
    <rect x="64" y="12" width="4" height="4"></rect>
    <rect x="68" y="12" width="4" height="4"></rect>
    <rect x="64" y="8" width="4" height="4"></rect>
    <rect x="64" y="16" width="4" height="4"></rect>
    <rect x="64" y="20" width="4" height="4"></rect>
    <rect x="64" y="24" width="4" height="4"></rect>
    <rect x="64" y="28" width="4" height="4"></rect>

    
    <rect x="76" y="12" width="4" height="4"></rect>
    <rect x="76" y="16" width="4" height="4"></rect>
    <rect x="80" y="20" width="4" height="4"></rect>
    <rect x="84" y="20" width="4" height="4"></rect>
    <rect x="84" y="16" width="4" height="4"></rect>
    <rect x="84" y="12" width="4" height="4"></rect>
    <rect x="84" y="24" width="4" height="4"></rect>
    <rect x="80" y="28" width="4" height="4"></rect>
    <rect x="76" y="32" width="4" height="4"></rect>
    <rect x="76" y="36" width="4" height="4"></rect>
  </g>

  
  <g transform="translate(108, 4) scale(3)">
    
    <rect x="2" y="1" width="1" height="1" fill="#A93D00"></rect>
    <rect x="13" y="1" width="1" height="1" fill="#A93D00"></rect>
    <rect x="1" y="2" width="1" height="1" fill="#A93D00"></rect>
    <rect x="2" y="2" width="2" height="1" fill="#F26A12"></rect>
    <rect x="4" y="2" width="1" height="1" fill="#A93D00"></rect>
    <rect x="11" y="2" width="1" height="1" fill="#A93D00"></rect>
    <rect x="12" y="2" width="2" height="1" fill="#F26A12"></rect>
    <rect x="14" y="2" width="1" height="1" fill="#A93D00"></rect>
    <rect x="1" y="3" width="1" height="1" fill="#A93D00"></rect>
    <rect x="2" y="3" width="3" height="1" fill="#F26A12"></rect>
    <rect x="5" y="3" width="6" height="1" fill="#A93D00"></rect>
    <rect x="11" y="3" width="3" height="1" fill="#F26A12"></rect>
    <rect x="14" y="3" width="1" height="1" fill="#A93D00"></rect>
    <rect x="1" y="4" width="1" height="1" fill="#A93D00"></rect>
    <rect x="2" y="4" width="12" height="1" fill="#F26A12"></rect>
    <rect x="14" y="4" width="1" height="1" fill="#A93D00"></rect>
    <rect x="1" y="5" width="1" height="1" fill="#A93D00"></rect>
    <rect x="2" y="5" width="2" height="1" fill="#F26A12"></rect>
    <rect x="4" y="5" width="2" height="1" fill="#0F0C09"></rect>
    <rect x="6" y="5" width="4" height="1" fill="#F26A12"></rect>
    <rect x="10" y="5" width="2" height="1" fill="#0F0C09"></rect>
    <rect x="12" y="5" width="2" height="1" fill="#F26A12"></rect>
    <rect x="14" y="5" width="1" height="1" fill="#A93D00"></rect>
    <rect x="1" y="6" width="1" height="1" fill="#A93D00"></rect>
    <rect x="2" y="6" width="3" height="1" fill="#F26A12"></rect>
    <rect x="5" y="6" width="1" height="1" fill="#FBF7F0"></rect>
    <rect x="6" y="6" width="5" height="1" fill="#F26A12"></rect>
    <rect x="11" y="6" width="1" height="1" fill="#FBF7F0"></rect>
    <rect x="12" y="6" width="2" height="1" fill="#F26A12"></rect>
    <rect x="14" y="6" width="1" height="1" fill="#A93D00"></rect>
    <rect x="1" y="7" width="1" height="1" fill="#A93D00"></rect>
    <rect x="2" y="7" width="5" height="1" fill="#F26A12"></rect>
    <rect x="7" y="7" width="2" height="1" fill="#B07AC2"></rect>
    <rect x="9" y="7" width="5" height="1" fill="#F26A12"></rect>
    <rect x="14" y="7" width="1" height="1" fill="#A93D00"></rect>
    <rect x="1" y="8" width="1" height="1" fill="#A93D00"></rect>
    <rect x="2" y="8" width="4" height="1" fill="#F26A12"></rect>
    <rect x="6" y="8" width="1" height="1" fill="#0F0C09"></rect>
    <rect x="7" y="8" width="2" height="1" fill="#F26A12"></rect>
    <rect x="9" y="8" width="1" height="1" fill="#0F0C09"></rect>
    <rect x="10" y="8" width="4" height="1" fill="#F26A12"></rect>
    <rect x="14" y="8" width="1" height="1" fill="#A93D00"></rect>
    <rect x="1" y="9" width="1" height="1" fill="#A93D00"></rect>
    <rect x="2" y="9" width="12" height="1" fill="#F26A12"></rect>
    <rect x="14" y="9" width="1" height="1" fill="#A93D00"></rect>
  </g>

  
  <rect x="0" y="20" width="4" height="4" fill="#F26A12"></rect>
  <rect x="4" y="24" width="4" height="4" fill="#F26A12"></rect>
  <rect x="0" y="28" width="4" height="4" fill="#F26A12"></rect>
</svg>