<svg xmlns="http://www.w3.org/2000/svg" viewBox="0 0 280 210" width="280" height="210">
  <defs><filter id="wob" x="-20%" y="-20%" width="140%" height="140%">
    <feTurbulence type="fractalNoise" baseFrequency="0.02 0.024" numOctaves="2" seed="4" result="n"></feTurbulence>
    <feDisplacementMap in="SourceGraphic" in2="n" scale="7" xChannelSelector="R" yChannelSelector="G"></feDisplacementMap>
  </filter></defs>
  <g filter="url(#wob)" stroke="#f3e7cf" stroke-width="5" fill="none" stroke-linecap="round" stroke-linejoin="round">
    <ellipse cx="168" cy="128" rx="62" ry="46"></ellipse>
    <circle cx="80" cy="102" r="44"></circle>
    <path d="M54 66 L44 24 L88 58"></path>
    <path d="M98 58 L118 24 L122 64"></path>
    
    <path d="M58 90 L70 102 M70 90 L58 102" stroke-width="4.5"></path>
    <path d="M38 104 L52 100 L49 112 Z"></path>
    
    <circle cx="58" cy="118" r="5"></circle>
    <path d="M36 100 Q20 96 8 102 M38 114 Q22 116 10 124"></path>
    
    <path d="M116 168 q-10 16 -2 20 M150 172 q-3 18 6 20 M190 170 q3 18 12 18 M216 160 q12 12 18 12"></path>
    
    <path d="M140 84 l-4 -14 M168 80 l0 -16 M196 86 l5 -14 M118 96 l-8 -10" stroke-width="4"></path>
    
    <path d="M228 120 Q244 92 238 64 Q236 50 248 50"></path>
  </g>
</svg>