<svg xmlns="http://www.w3.org/2000/svg" viewBox="0 0 280 210" width="280" height="210">
  <defs><filter id="wob" x="-20%" y="-20%" width="140%" height="140%">
    <feTurbulence type="fractalNoise" baseFrequency="0.018 0.022" numOctaves="2" seed="7" result="n"></feTurbulence>
    <feDisplacementMap in="SourceGraphic" in2="n" scale="6" xChannelSelector="R" yChannelSelector="G"></feDisplacementMap>
  </filter></defs>
  <g filter="url(#wob)" stroke="#f3e7cf" stroke-width="5" fill="none" stroke-linecap="round" stroke-linejoin="round">
    <ellipse cx="168" cy="128" rx="62" ry="46"></ellipse>
    <circle cx="80" cy="102" r="44"></circle>
    <path d="M54 66 L44 24 L88 58"></path>
    <path d="M98 58 L118 24 L122 64"></path>
    <circle cx="64" cy="96" r="5" fill="#f3e7cf" stroke="none"></circle>
    <path d="M38 104 L52 100 L49 112 Z"></path>
    <path d="M44 113 Q58 126 74 116"></path>
    <path d="M36 100 Q20 96 8 102 M38 114 Q22 116 10 124"></path>
    <path d="M120 168 q-4 18 6 20 M152 172 q-2 18 7 20 M188 170 q0 18 8 19 M214 160 q5 16 12 17"></path>
    <path d="M226 122 Q262 112 256 70 Q254 48 236 58"></path>
  </g>
</svg>